<svg width="53" height="53" viewBox="0 0 53 53" fill="none" xmlns="http://www.w3.org/2000/svg">
<path fill-rule="evenodd" clip-rule="evenodd" d="M38.2778 1.17778H14.7222C7.24183 1.17778 1.17778 7.24183 1.17778 14.7222V38.2778C1.17778 45.7582 7.24183 51.8222 14.7222 51.8222H38.2778C45.7582 51.8222 51.8222 45.7582 51.8222 38.2778V14.7222C51.8222 7.24183 45.7582 1.17778 38.2778 1.17778ZM14.7222 0C6.59136 0 0 6.59136 0 14.7222V38.2778C0 46.4086 6.59136 53 14.7222 53H38.2778C46.4086 53 53 46.4086 53 38.2778V14.7222C53 6.59136 46.4086 0 38.2778 0H14.7222Z" fill="black"/>
<path d="M7.0045 15.7711V24.1444H6.3029V15.7711H7.0045ZM9.87419 15.7711V16.3807H3.43896V15.7711H9.87419Z" fill="black"/>
<path d="M10.1215 21.1309V20.9411C10.1215 20.4887 10.1866 20.0709 10.317 19.6875C10.4474 19.3041 10.6333 18.9724 10.8748 18.6926C11.1202 18.4127 11.4135 18.1961 11.7547 18.0427C12.0959 17.8855 12.4755 17.8069 12.8934 17.8069C13.3151 17.8069 13.6966 17.8855 14.0378 18.0427C14.379 18.1961 14.6723 18.4127 14.9177 18.6926C15.1631 18.9724 15.3509 19.3041 15.4813 19.6875C15.6116 20.0709 15.6768 20.4887 15.6768 20.9411V21.1309C15.6768 21.5833 15.6116 22.0012 15.4813 22.3846C15.3509 22.7642 15.1631 23.0939 14.9177 23.3738C14.6762 23.6536 14.3848 23.8722 14.0436 24.0294C13.7023 24.1827 13.3228 24.2594 12.9049 24.2594C12.4832 24.2594 12.1017 24.1827 11.7605 24.0294C11.4193 23.8722 11.126 23.6536 10.8806 23.3738C10.6352 23.0939 10.4474 22.7642 10.317 22.3846C10.1866 22.0012 10.1215 21.5833 10.1215 21.1309ZM10.8058 20.9411V21.1309C10.8058 21.4721 10.8518 21.7961 10.9438 22.1028C11.0359 22.4057 11.17 22.676 11.3464 22.9137C11.5228 23.1476 11.7413 23.3316 12.002 23.4658C12.2627 23.6 12.5637 23.6671 12.9049 23.6671C13.2423 23.6671 13.5394 23.6 13.7963 23.4658C14.057 23.3316 14.2755 23.1476 14.4519 22.9137C14.6282 22.676 14.7605 22.4057 14.8487 22.1028C14.9407 21.7961 14.9867 21.4721 14.9867 21.1309V20.9411C14.9867 20.6038 14.9407 20.2836 14.8487 19.9808C14.7605 19.6779 14.6263 19.4076 14.4461 19.1699C14.2698 18.9322 14.0512 18.7443 13.7905 18.6063C13.5298 18.4683 13.2308 18.3993 12.8934 18.3993C12.556 18.3993 12.257 18.4683 11.9963 18.6063C11.7394 18.7443 11.5209 18.9322 11.3407 19.1699C11.1643 19.4076 11.0301 19.6779 10.9381 19.9808C10.8499 20.2836 10.8058 20.6038 10.8058 20.9411Z" fill="black"/>
<path d="M18.8283 22.6894L20.3293 17.9219H20.8123L20.5248 19.2044L18.9548 24.1444H18.4717L18.8283 22.6894ZM17.2698 17.9219L18.5868 22.7182L18.8685 24.1444H18.3682L16.5624 17.9219H17.2698ZM22.6814 22.7009L23.9638 17.9219H24.6712L22.8654 24.1444H22.3708L22.6814 22.7009ZM20.9101 17.9219L22.3881 22.6492L22.7619 24.1444H22.2788L20.6743 19.1986L20.404 17.9219H20.9101Z" fill="black"/>
<path d="M26.6782 19.2504V24.1444H25.9939V17.9219H26.6495L26.6782 19.2504ZM26.5229 20.6479L26.2182 20.4753C26.2412 20.1073 26.3159 19.7622 26.4424 19.4402C26.569 19.1181 26.7396 18.8344 26.9543 18.589C27.1728 18.3437 27.4278 18.152 27.7191 18.014C28.0143 17.8759 28.3402 17.8069 28.6968 17.8069C29.0073 17.8069 29.2853 17.8491 29.5307 17.9334C29.776 18.0178 29.985 18.152 30.1575 18.336C30.33 18.52 30.4604 18.7558 30.5486 19.0434C30.6406 19.3309 30.6866 19.6817 30.6866 20.0958V24.1444H29.9965V20.09C29.9965 19.6606 29.937 19.3252 29.8182 19.0836C29.6993 18.8382 29.5307 18.6638 29.3121 18.5603C29.0936 18.4568 28.8348 18.405 28.5358 18.405C28.206 18.405 27.9166 18.4779 27.6674 18.6235C27.422 18.7654 27.215 18.9513 27.0463 19.1814C26.8814 19.4076 26.7549 19.651 26.6667 19.9117C26.5785 20.1686 26.5306 20.414 26.5229 20.6479Z" fill="black"/>
<path d="M17.7726 32.8651C17.7726 32.7041 17.7477 32.5603 17.6978 32.4338C17.6518 32.3034 17.5656 32.1865 17.439 32.083C17.3164 31.9756 17.1419 31.8721 16.9157 31.7724C16.6934 31.6689 16.4058 31.5616 16.0531 31.4504C15.662 31.3277 15.2978 31.1897 14.9604 31.0363C14.623 30.883 14.3259 30.7047 14.069 30.5015C13.816 30.2983 13.6186 30.0644 13.4767 29.7999C13.3348 29.5315 13.2639 29.221 13.2639 28.8683C13.2639 28.5232 13.3368 28.2088 13.4824 27.9251C13.632 27.6414 13.8428 27.398 14.115 27.1948C14.3873 26.9877 14.7074 26.8286 15.0754 26.7174C15.4473 26.6063 15.8576 26.5507 16.3061 26.5507C16.9272 26.5507 17.464 26.6638 17.9164 26.89C18.3726 27.1162 18.7253 27.4229 18.9745 27.8101C19.2237 28.1973 19.3483 28.6325 19.3483 29.1155H17.7726C17.7726 28.8548 17.717 28.6248 17.6058 28.4254C17.4985 28.2261 17.3336 28.0689 17.1112 27.9539C16.8927 27.8389 16.6167 27.7813 16.2831 27.7813C15.9611 27.7813 15.6927 27.8293 15.478 27.9251C15.2671 28.021 15.108 28.1513 15.0007 28.3162C14.8972 28.481 14.8454 28.6651 14.8454 28.8683C14.8454 29.0216 14.8818 29.1596 14.9547 29.2823C15.0275 29.4012 15.1368 29.5143 15.2825 29.6216C15.4282 29.7251 15.6084 29.8229 15.8231 29.9149C16.0416 30.0031 16.2946 30.0913 16.5822 30.1795C17.0422 30.3175 17.4448 30.4708 17.7898 30.6395C18.1387 30.8082 18.4282 30.9999 18.6582 31.2146C18.8921 31.4293 19.0665 31.6708 19.1816 31.9392C19.3004 32.2076 19.3598 32.5124 19.3598 32.8536C19.3598 33.214 19.2889 33.536 19.1471 33.8198C19.0052 34.1035 18.802 34.345 18.5375 34.5444C18.2729 34.7437 17.9547 34.8952 17.5828 34.9987C17.2148 35.1022 16.8026 35.154 16.3464 35.154C15.94 35.154 15.5374 35.1003 15.1387 34.9929C14.7438 34.8818 14.3853 34.7169 14.0633 34.4984C13.7412 34.276 13.4844 33.9961 13.2927 33.6587C13.101 33.3175 13.0051 32.9188 13.0051 32.4626H14.5924C14.5924 32.7271 14.6345 32.9533 14.7189 33.1412C14.8071 33.3252 14.9298 33.4766 15.0869 33.5955C15.248 33.7105 15.4358 33.7948 15.6505 33.8485C15.8652 33.9022 16.0972 33.929 16.3464 33.929C16.6684 33.929 16.933 33.8849 17.14 33.7968C17.3509 33.7047 17.5081 33.5782 17.6116 33.4172C17.7189 33.2562 17.7726 33.0721 17.7726 32.8651Z" fill="black"/>
<path d="M24.1906 37.4313V30.0702L24.3746 28.8165H25.7203V37.4313H24.1906ZM20.1995 31.991V31.8702C20.1995 31.3948 20.2531 30.9635 20.3605 30.5763C20.4678 30.1852 20.625 29.8517 20.8321 29.5756C21.0429 29.2957 21.2998 29.081 21.6027 28.9315C21.9056 28.7782 22.2525 28.7015 22.6436 28.7015C23.027 28.7015 23.3586 28.7762 23.6385 28.9258C23.9184 29.0753 24.1561 29.2881 24.3516 29.5641C24.5471 29.8363 24.7024 30.1603 24.8174 30.536C24.9363 30.9117 25.0244 31.3277 25.082 31.7839V32.1117C25.0244 32.5488 24.9363 32.9533 24.8174 33.3252C24.7024 33.6932 24.5471 34.0153 24.3516 34.2913C24.1599 34.5635 23.9222 34.7763 23.6385 34.9297C23.3548 35.0792 23.0193 35.154 22.6321 35.154C22.2449 35.154 21.8998 35.0754 21.5969 34.9182C21.2979 34.7571 21.0429 34.5348 20.8321 34.2511C20.625 33.9674 20.4678 33.6338 20.3605 33.2504C20.2531 32.8632 20.1995 32.4434 20.1995 31.991ZM21.7234 31.8702V31.991C21.7234 32.2632 21.7464 32.5181 21.7925 32.7558C21.8423 32.9897 21.919 33.1967 22.0225 33.3769C22.126 33.5571 22.2583 33.699 22.4193 33.8025C22.5842 33.906 22.7835 33.9578 23.0174 33.9578C23.3318 33.9578 23.5867 33.8888 23.7823 33.7507C23.9816 33.6127 24.1311 33.4268 24.2308 33.1929C24.3343 32.9552 24.4014 32.6907 24.4321 32.3993V31.5022C24.4129 31.2683 24.3727 31.0536 24.3113 30.8581C24.25 30.6625 24.1637 30.4938 24.0525 30.352C23.9452 30.2101 23.8072 30.0989 23.6385 30.0184C23.4698 29.9379 23.2666 29.8977 23.0289 29.8977C22.795 29.8977 22.5957 29.9494 22.4308 30.0529C22.2659 30.1526 22.1318 30.2926 22.0282 30.4728C21.9247 30.6529 21.848 30.8619 21.7982 31.0996C21.7484 31.3373 21.7234 31.5942 21.7234 31.8702Z" fill="black"/>
<path d="M30.8271 33.561V28.8165H32.3568V35.0389H30.9191L30.8271 33.561ZM31.0226 32.2728L31.4942 32.2613C31.4942 32.6792 31.4482 33.0645 31.3561 33.4172C31.2641 33.7699 31.1204 34.0766 30.9248 34.3373C30.7331 34.5942 30.4897 34.7955 30.1945 34.9412C29.8993 35.083 29.5504 35.154 29.1478 35.154C28.8411 35.154 28.5612 35.1118 28.3082 35.0274C28.0552 34.9393 27.8366 34.8032 27.6526 34.6191C27.4724 34.4313 27.3325 34.1916 27.2328 33.9003C27.1331 33.6051 27.0833 33.2504 27.0833 32.8364V28.8165H28.6015V32.8479C28.6015 33.0549 28.6245 33.2274 28.6705 33.3654C28.7203 33.5035 28.7874 33.6166 28.8718 33.7047C28.96 33.7891 29.0616 33.8504 29.1766 33.8888C29.2954 33.9233 29.4219 33.9405 29.5561 33.9405C29.9242 33.9405 30.2136 33.8677 30.4245 33.722C30.6392 33.5725 30.7926 33.3731 30.8846 33.1239C30.9766 32.8709 31.0226 32.5872 31.0226 32.2728Z" fill="black"/>
<path d="M37.13 33.7162V30.8466C37.13 30.6357 37.0936 30.4536 37.0208 30.3002C36.9479 30.1469 36.8367 30.028 36.6872 29.9437C36.5377 29.8593 36.3479 29.8172 36.1179 29.8172C35.9147 29.8172 35.7364 29.8517 35.583 29.9207C35.4335 29.9897 35.3185 30.0874 35.238 30.214C35.1575 30.3366 35.1172 30.4785 35.1172 30.6395H33.5932C33.5932 30.3827 33.6546 30.1392 33.7773 29.9092C33.9 29.6753 34.0744 29.4683 34.3006 29.2881C34.5306 29.104 34.8048 28.9603 35.123 28.8568C35.445 28.7532 35.8054 28.7015 36.2041 28.7015C36.6757 28.7015 37.0955 28.782 37.4636 28.943C37.8355 29.1002 38.1268 29.3379 38.3377 29.6561C38.5524 29.9743 38.6598 30.375 38.6598 30.8581V33.5725C38.6598 33.883 38.6789 34.1495 38.7173 34.3718C38.7594 34.5904 38.8208 34.7802 38.9013 34.9412V35.0389H37.3543C37.2815 34.8818 37.2259 34.6824 37.1875 34.4409C37.1492 34.1955 37.13 33.9539 37.13 33.7162ZM37.3428 31.2491L37.3543 32.152H36.3939C36.1562 32.152 35.9473 32.1769 35.7671 32.2268C35.5869 32.2728 35.4393 32.3418 35.3242 32.4338C35.2092 32.522 35.123 32.6293 35.0655 32.7558C35.0079 32.8785 34.9792 33.0185 34.9792 33.1757C34.9792 33.329 35.0137 33.467 35.0827 33.5897C35.1556 33.7124 35.2591 33.8102 35.3933 33.883C35.5313 33.952 35.6923 33.9865 35.8763 33.9865C36.1447 33.9865 36.3786 33.9329 36.5779 33.8255C36.7773 33.7143 36.9326 33.5801 37.0438 33.4229C37.1549 33.2658 37.2144 33.1162 37.222 32.9744L37.6591 33.63C37.6054 33.7872 37.5249 33.9539 37.4176 34.1303C37.3102 34.3067 37.1722 34.4715 37.0035 34.6249C36.8348 34.7782 36.6316 34.9048 36.3939 35.0044C36.1562 35.1041 35.8802 35.154 35.5658 35.154C35.1632 35.154 34.8028 35.0734 34.4846 34.9124C34.1664 34.7514 33.9153 34.5309 33.7313 34.2511C33.5472 33.9712 33.4552 33.653 33.4552 33.2964C33.4552 32.9667 33.5166 32.6753 33.6392 32.4223C33.7619 32.1693 33.944 31.9565 34.1856 31.7839C34.4271 31.6076 34.7262 31.4753 35.0827 31.3871C35.4431 31.2951 35.8552 31.2491 36.3191 31.2491H37.3428Z" fill="black"/>
<path d="M41.5467 30.0874V35.0389H40.0285V28.8165H41.4662L41.5467 30.0874ZM43.4387 28.7762L43.4157 30.191C43.3314 30.1756 43.2355 30.1641 43.1282 30.1565C43.0247 30.1488 42.9269 30.145 42.8349 30.145C42.601 30.145 42.3959 30.1775 42.2195 30.2427C42.0432 30.3041 41.8956 30.3942 41.7767 30.513C41.6617 30.6319 41.5735 30.7775 41.5122 30.9501C41.4508 31.1188 41.4163 31.3105 41.4087 31.5252L41.0809 31.4849C41.0809 31.09 41.1211 30.7239 41.2016 30.3865C41.2821 30.0491 41.3991 29.7539 41.5524 29.5009C41.7058 29.2478 41.8975 29.0523 42.1275 28.9143C42.3614 28.7724 42.6298 28.7015 42.9326 28.7015C43.017 28.7015 43.1071 28.7092 43.2029 28.7245C43.3026 28.736 43.3812 28.7532 43.4387 28.7762Z" fill="black"/>
<path d="M46.9525 35.154C46.4809 35.154 46.0573 35.0773 45.6816 34.9239C45.3058 34.7706 44.9857 34.5578 44.7212 34.2856C44.4605 34.0095 44.2592 33.6894 44.1173 33.3252C43.9793 32.9571 43.9103 32.5622 43.9103 32.1405V31.9105C43.9103 31.4312 43.9793 30.9961 44.1173 30.605C44.2553 30.2101 44.4509 29.8708 44.7039 29.5871C44.957 29.3034 45.2598 29.0849 45.6126 28.9315C45.9653 28.7782 46.3544 28.7015 46.78 28.7015C47.2209 28.7015 47.61 28.7762 47.9474 28.9258C48.2848 29.0715 48.5666 29.2785 48.7928 29.5469C49.019 29.8152 49.1896 30.1373 49.3046 30.513C49.4196 30.8849 49.4771 31.297 49.4771 31.7494V32.3878H44.6004V31.3411H47.9819V31.2261C47.9742 30.9846 47.9282 30.7641 47.8439 30.5648C47.7595 30.3616 47.6292 30.2005 47.4528 30.0817C47.2765 29.959 47.0484 29.8977 46.7685 29.8977C46.5423 29.8977 46.3448 29.9475 46.1761 30.0472C46.0113 30.143 45.8733 30.2811 45.7621 30.4612C45.6547 30.6376 45.5742 30.8485 45.5205 31.0938C45.4669 31.3392 45.44 31.6114 45.44 31.9105V32.1405C45.44 32.4012 45.4745 32.6427 45.5435 32.8651C45.6164 33.0875 45.7218 33.2811 45.8598 33.446C46.0017 33.607 46.1704 33.7335 46.3659 33.8255C46.5653 33.9137 46.7915 33.9578 47.0445 33.9578C47.3627 33.9578 47.6503 33.8964 47.9072 33.7738C48.1679 33.6472 48.3941 33.4613 48.5858 33.2159L49.3506 34.0095C49.2203 34.2012 49.0439 34.3853 48.8215 34.5616C48.603 34.738 48.3385 34.8818 48.0279 34.9929C47.7174 35.1003 47.3589 35.154 46.9525 35.154Z" fill="black"/>
</svg>
